<svg width="28" height="21" viewBox="0 0 28 21" fill="none" xmlns="http://www.w3.org/2000/svg">
<path d="M1.44248 0.0306723C0.993834 0.103131 0.592081 0.352525 0.325601 0.723988C0.0591201 1.09545 -0.0502599 1.55856 0.0215231 2.01143C0.093306 2.4643 0.340372 2.86983 0.708369 3.13883C1.07637 3.40782 1.53515 3.51823 1.98379 3.44577H7.05863L7.36312 4.29954L8.75024 8.56841L10.1374 12.8373C10.2727 13.2812 10.8478 13.6911 11.2877 13.6911H23.1289C23.6026 13.6911 24.1439 13.2812 24.2792 12.8373L27.0197 4.29954C27.155 3.85558 26.952 3.44577 26.4783 3.44577H11.4568L10.1712 0.986899C10.0343 0.704673 9.82283 0.466065 9.56018 0.297349C9.29753 0.128633 8.99385 0.0363534 8.68258 0.0306723L1.91613 0.0306723C1.81484 0.0214328 1.71293 0.0214328 1.61164 0.0306723C1.54404 0.0265705 1.47625 0.0265705 1.40865 0.0306723L1.44248 0.0306723ZM12.1335 17.1061C11.1862 17.1061 10.4419 17.8575 10.4419 18.8137C10.4419 19.7699 11.1862 20.5212 12.1335 20.5212C13.0808 20.5212 13.8251 19.7699 13.8251 18.8137C13.8251 17.8575 13.0808 17.1061 12.1335 17.1061ZM22.2831 17.1061C21.3358 17.1061 20.5915 17.8575 20.5915 18.8137C20.5915 19.7699 21.3358 20.5212 22.2831 20.5212C23.2304 20.5212 23.9748 19.7699 23.9748 18.8137C23.9748 17.8575 23.2304 17.1061 22.2831 17.1061Z" fill="#6F6E6E"/>
</svg>
