<svg width="19" height="21" viewBox="0 0 19 21" fill="none" xmlns="http://www.w3.org/2000/svg">
<path d="M18.0892 10.3004C18.0892 4.61116 14.0399 0 9.04462 0C4.04931 0 0 4.61116 0 10.3004C0 15.4403 3.30759 19.7013 7.63128 20.4738V13.2772H5.33526V10.2996H7.63128V8.0309C7.63128 5.44892 8.98206 4.02317 11.0474 4.02317C12.0371 4.02317 13.0721 4.22403 13.0721 4.22403V6.75879H11.9324C10.8092 6.75879 10.4587 7.55278 10.4587 8.36738V10.3004H12.9673L12.5663 13.2781H10.4587V20.4747C14.7824 19.7021 18.09 15.4412 18.09 10.3004H18.0892Z" fill="#4267B2"/>
</svg>
