<svg width="20" height="22" viewBox="0 0 20 22" fill="none" xmlns="http://www.w3.org/2000/svg">
<path d="M9.56329 0C6.98925 0 6.66789 0.0134871 5.65722 0.0647379C4.64813 0.118686 3.96119 0.299413 3.35716 0.566457C2.73418 0.841593 2.20516 1.21114 1.67851 1.81086C1.15186 2.41059 0.826548 3.01211 0.585725 3.72243C0.351219 4.41027 0.191723 5.19252 0.145137 6.34162C0.0977624 7.49252 0.0882874 7.85847 0.0882874 10.7897C0.0882874 13.7208 0.100131 14.0868 0.145137 15.2377C0.192512 16.3859 0.351219 17.169 0.585725 17.8569C0.82362 18.577 1.19654 19.2293 1.67851 19.7684C2.15169 20.3177 2.72463 20.7424 3.35716 21.0129C3.96198 21.279 4.64892 21.4615 5.65722 21.5146C6.66789 21.5685 6.98925 21.5793 9.56329 21.5793C12.1373 21.5793 12.4587 21.5658 13.4694 21.5146C14.4777 21.4606 15.1654 21.279 15.7694 21.0129C16.4016 20.7416 16.9744 20.317 17.4481 19.7684C17.9305 19.2298 18.3035 18.5773 18.5409 17.8569C18.7746 17.169 18.9349 16.3859 18.9814 15.2377C19.0288 14.0868 19.0383 13.7208 19.0383 10.7897C19.0383 7.85847 19.0264 7.49252 18.9814 6.34162C18.9341 5.19342 18.7746 4.40937 18.5409 3.72243C18.3028 3.00242 17.9299 2.3501 17.4481 1.81086C16.9752 1.26117 16.4022 0.836369 15.7694 0.566457C15.1654 0.299413 14.4777 0.117787 13.4694 0.0647379C12.4587 0.0107897 12.1373 0 9.56329 0ZM9.56329 1.94214C12.0923 1.94214 12.3939 1.95652 13.3928 2.00598C14.3166 2.05543 14.818 2.22986 15.1512 2.37912C15.5949 2.57423 15.9092 2.80801 16.2424 3.18475C16.5732 3.56238 16.7785 3.92114 16.9498 4.42646C17.0793 4.80589 17.2341 5.37685 17.2759 6.42884C17.3209 7.56715 17.3312 7.90882 17.3312 10.7897C17.3312 13.6705 17.3194 14.0131 17.2728 15.1505C17.2246 16.2025 17.0706 16.7734 16.9404 17.1529C16.7862 17.6211 16.5439 18.0452 16.2305 18.3955C15.9243 18.7527 15.5521 19.0279 15.1409 19.2011C14.8093 19.3485 14.3 19.5248 13.3762 19.5724C12.3703 19.6237 12.0742 19.6354 9.5396 19.6354C7.00425 19.6354 6.70815 19.6219 5.70301 19.5688C4.77841 19.514 4.26913 19.3387 3.93751 19.1903C3.52606 19.0169 3.15398 18.7407 2.84867 18.382C2.53172 18.0356 2.28863 17.6111 2.13805 17.1412C2.00776 16.7635 1.85459 16.1836 1.80642 15.1316C1.77089 13.9987 1.75826 13.6489 1.75826 10.7762C1.75826 7.90252 1.77089 7.55186 1.80642 6.40546C1.85459 5.35347 2.00776 4.77442 2.13805 4.39678C2.30386 3.88428 2.51626 3.53361 2.84867 3.15508C3.17951 2.77834 3.48823 2.53557 3.93751 2.34765C4.26913 2.19839 4.76736 2.02306 5.69117 1.96911C6.69789 1.92865 6.99398 1.91516 9.52776 1.91516L9.56329 1.94214V1.94214ZM9.56329 5.24917C8.92435 5.24917 8.29167 5.39248 7.70138 5.67091C7.11108 5.94935 6.57472 6.35746 6.12292 6.87194C5.67113 7.38642 5.31274 7.9972 5.06823 8.6694C4.82372 9.34161 4.69788 10.0621 4.69788 10.7897C4.69788 11.5172 4.82372 12.2377 5.06823 12.9099C5.31274 13.5821 5.67113 14.1929 6.12292 14.7074C6.57472 15.2219 7.11108 15.63 7.70138 15.9084C8.29167 16.1868 8.92435 16.3301 9.56329 16.3301C10.8537 16.3301 12.0912 15.7464 13.0037 14.7074C13.9161 13.6683 14.4287 12.2591 14.4287 10.7897C14.4287 9.32023 13.9161 7.91098 13.0037 6.87194C12.0912 5.8329 10.8537 5.24917 9.56329 5.24917V5.24917ZM9.56329 14.3862C7.81831 14.3862 6.40495 12.7768 6.40495 10.7897C6.40495 8.80256 7.81831 7.1931 9.56329 7.1931C11.3083 7.1931 12.7216 8.80256 12.7216 10.7897C12.7216 12.7768 11.3083 14.3862 9.56329 14.3862ZM15.7584 5.03068C15.7474 5.36572 15.6228 5.68287 15.4108 5.91549C15.1987 6.14811 14.9158 6.27807 14.6214 6.27807C14.3269 6.27807 14.044 6.14811 13.8319 5.91549C13.6199 5.68287 13.4953 5.36572 13.4844 5.03068C13.4844 4.68729 13.6041 4.35796 13.8174 4.11514C14.0306 3.87233 14.3198 3.73592 14.6214 3.73592C14.9229 3.73592 15.2121 3.87233 15.4253 4.11514C15.6386 4.35796 15.7584 4.68729 15.7584 5.03068V5.03068Z" fill="#C13584"/>
</svg>
