<svg width="17" height="18" viewBox="0 0 17 18" fill="none" xmlns="http://www.w3.org/2000/svg">
<path d="M7.37077 0.670264C3.30632 0.670264 0 3.85264 0 7.76474C0 11.6768 3.30632 14.8592 7.37077 14.8592C8.61327 14.8592 9.83471 14.5754 10.8666 14.0282C10.9493 14.1239 11.0409 14.2121 11.1404 14.2917L13.2463 16.3187C13.4408 16.5293 13.6779 16.6994 13.9431 16.8186C14.2084 16.9378 14.4961 17.0036 14.7887 17.0119C15.0813 17.0201 15.3726 16.9708 15.6447 16.8668C15.9167 16.7628 16.1639 16.6064 16.3708 16.4072C16.5778 16.208 16.7403 15.9701 16.8484 15.7082C16.9564 15.4464 17.0077 15.166 16.9991 14.8844C16.9905 14.6027 16.9221 14.3258 16.7983 14.0705C16.6744 13.8152 16.4977 13.5869 16.2789 13.3998L14.1729 11.3728C14.0704 11.274 13.9574 11.1857 13.836 11.1093C14.4046 10.1161 14.7626 8.96067 14.7626 7.74447C14.7626 3.83237 11.4563 0.649994 7.39183 0.649994L7.37077 0.670264ZM7.37077 2.69726C10.298 2.69726 12.6356 4.94722 12.6356 7.76474C12.6356 9.10256 12.1302 10.339 11.2457 11.2512C11.2246 11.2714 11.2036 11.2917 11.1825 11.312C11.083 11.3915 10.9914 11.4797 10.9087 11.5755C9.98213 12.3863 8.71857 12.8525 7.34971 12.8525C4.42246 12.8525 2.08488 10.6025 2.08488 7.78501C2.08488 4.96749 4.42246 2.71753 7.34971 2.71753L7.37077 2.69726Z" fill="black"/>
</svg>
