<svg width="16" height="18" viewBox="0 0 16 18" fill="none" xmlns="http://www.w3.org/2000/svg">
<path d="M7.22966 0.400532C6.05109 0.400532 5.0868 1.36482 5.0868 2.54339H2.94394C1.76537 2.54339 0.801086 3.50767 0.801086 4.68625H15.8011C15.8011 3.50767 14.8368 2.54339 13.6582 2.54339H11.5154C11.5154 1.36482 10.5511 0.400532 9.37251 0.400532H7.22966ZM2.94394 6.8291V17.1362C2.94394 17.372 3.11537 17.5434 3.35109 17.5434H13.2725C13.5082 17.5434 13.6797 17.372 13.6797 17.1362V6.8291H11.5368V14.3291C11.5368 14.9291 11.0654 15.4005 10.4654 15.4005C9.86537 15.4005 9.39394 14.9291 9.39394 14.3291V6.8291H7.25109V14.3291C7.25109 14.9291 6.77966 15.4005 6.17966 15.4005C5.57966 15.4005 5.10823 14.9291 5.10823 14.3291V6.8291H2.96537H2.94394Z" fill="#6F6E6E"/>
</svg>
