<svg width="18" height="23" viewBox="0 0 18 23" fill="none" xmlns="http://www.w3.org/2000/svg">
<path d="M9.85698 0.0186452C10.9294 0 11.9937 0.0093226 13.058 0C13.1235 1.42636 13.5737 2.88068 14.4907 3.88752C15.4076 4.92233 16.7011 5.39779 17.9618 5.55627V9.31328C16.7829 9.26666 15.5959 8.98699 14.5234 8.40899C14.0568 8.1666 13.6229 7.85895 13.1972 7.54198C13.189 10.2642 13.2053 12.9864 13.1808 15.6993C13.1153 17.0044 12.7387 18.3003 12.0756 19.3724C11.0031 21.1623 9.14474 22.3276 7.23724 22.3649C6.06655 22.4395 4.89585 22.0759 3.89707 21.4047C2.24336 20.2953 1.08085 18.263 0.908927 16.0815C0.892553 15.6154 0.884367 15.1492 0.90074 14.6924C1.0481 12.9211 1.81765 11.2244 3.01291 10.0684C4.3719 8.72595 6.27121 8.08269 8.04772 8.46492C8.0641 9.84467 8.01498 11.2244 8.01498 12.6042C7.2045 12.3058 6.25484 12.3897 5.5426 12.9491C5.02683 13.3313 4.63387 13.9186 4.42921 14.5805C4.25729 15.056 4.30641 15.5781 4.31459 16.0815C4.51107 17.6104 5.80457 18.8969 7.17994 18.7571C8.09685 18.7478 8.97282 18.1418 9.44765 17.2561C9.6032 16.9485 9.77512 16.6315 9.7833 16.2679C9.86517 14.5992 9.83242 12.9398 9.84061 11.271C9.8488 7.51402 9.83242 3.76633 9.85698 0.0186452V0.0186452Z" fill="black"/>
</svg>
