<?xml version="1.0" standalone="no"?>
<!DOCTYPE svg PUBLIC "-//W3C//DTD SVG 20010904//EN"
 "http://www.w3.org/TR/2001/REC-SVG-20010904/DTD/svg10.dtd">
<svg version="1.0" xmlns="http://www.w3.org/2000/svg"
 width="500.000000pt" height="270.000000pt" viewBox="0 0 500.000000 270.000000"
 preserveAspectRatio="xMidYMid meet">

<g transform="translate(0.000000,270.000000) scale(0.100000,-0.100000)"
fill="#117182" stroke="none">
<path d="M550 2095 l0 -54 106 -3 107 -3 202 -560 c112 -308 208 -572 214
-587 l11 -28 380 0 380 0 0 55 0 55 -342 0 -343 0 -36 115 -36 115 430 2 430
3 122 375 121 375 -702 3 -702 2 -7 28 c-3 15 -15 57 -27 95 l-20 67 -144 0
-144 0 0 -55z m1598 -257 c-3 -7 -44 -129 -92 -270 l-88 -258 -407 0 -407 0
-32 68 c-18 37 -66 158 -106 270 l-74 202 605 0 c480 0 604 -3 601 -12z"/>
<path d="M2427 1748 c15 -35 77 -175 139 -313 l111 -250 39 -3 39 -2 135 305
c74 169 137 310 138 316 2 5 -16 9 -40 9 l-43 0 -110 -250 c-60 -138 -113
-249 -118 -247 -5 1 -58 113 -117 247 l-107 245 -47 3 -46 3 27 -63z"/>
<path d="M3100 1495 l0 -315 40 0 40 0 0 315 0 315 -40 0 -40 0 0 -315z"/>
<path d="M3360 1495 l0 -315 45 0 45 0 0 94 0 93 119 6 c131 6 184 22 235 73
39 39 56 83 56 146 0 62 -25 121 -66 160 -51 48 -100 58 -275 58 l-159 0 0
-315z m351 219 c91 -53 89 -191 -4 -241 -23 -12 -63 -18 -144 -21 l-113 -4 0
147 0 148 113 -5 c89 -3 121 -8 148 -24z"/>
<path d="M3920 1715 l0 -95 40 0 39 0 3 58 3 57 143 3 c78 1 142 1 142 -2 0
-5 -238 -535 -246 -548 -3 -5 15 -8 41 -6 l47 3 129 285 c71 157 129 297 129
313 l0 27 -235 0 -235 0 0 -95z"/>
<path d="M1239 741 c-60 -60 -26 -171 58 -187 76 -14 143 53 129 129 -16 84
-127 118 -187 58z"/>
<path d="M1780 757 c-103 -80 -26 -237 96 -197 41 14 74 60 74 103 0 37 -27
82 -57 96 -32 15 -94 13 -113 -2z"/>
</g>
</svg>
