<svg width="19" height="22" viewBox="0 0 19 22" fill="none" xmlns="http://www.w3.org/2000/svg">
<path d="M13.7855 12.9246C13.5511 12.7907 12.3981 12.1454 12.1835 12.0556C11.968 11.9666 11.8118 11.9226 11.6547 12.1904C11.4992 12.4573 11.0494 13.0585 10.9129 13.2364C10.7764 13.4152 10.6391 13.4368 10.4047 13.3038C10.1703 13.169 9.41428 12.8877 8.51858 11.9783C7.82175 11.2701 7.35062 10.3957 7.21409 10.1279C7.07757 9.86103 7.19989 9.71635 7.31668 9.58334C7.42243 9.46382 7.55185 9.27151 7.66865 9.11604C7.78623 8.95967 7.8249 8.84824 7.90382 8.66941C7.98195 8.49147 7.94328 8.336 7.88409 8.2021C7.8249 8.0682 7.35614 6.75346 7.16122 6.21876C6.97024 5.69844 6.7769 5.76943 6.63327 5.76045C6.4834 5.75365 6.33343 5.75065 6.18344 5.75146C6.02719 5.75146 5.77308 5.81796 5.55843 6.08576C5.34377 6.35266 4.7377 6.9988 4.7377 8.31354C4.7377 9.62738 5.57816 10.8972 5.69495 11.076C5.81254 11.254 7.34904 13.9517 9.70153 15.1083C10.2611 15.3833 10.6975 15.5477 11.0384 15.67C11.6003 15.874 12.1116 15.8452 12.5149 15.776C12.9655 15.6996 13.9023 15.1299 14.098 14.5062C14.2937 13.8825 14.2937 13.3478 14.2345 13.2364C14.1761 13.125 14.0198 13.0585 13.7847 12.9246M9.50661 19.5773H9.50345C8.10645 19.5775 6.73513 19.1497 5.53317 18.339L5.24829 18.1467L2.29603 19.0292L3.08361 15.7508L2.89816 15.4147C2.11723 13.9987 1.70411 12.3599 1.70652 10.6878C1.70731 5.7901 5.20725 1.80544 9.50977 1.80544C11.5932 1.80544 13.5519 2.73106 15.0244 4.40976C15.751 5.23349 16.3269 6.21312 16.7188 7.29198C17.1107 8.37084 17.3108 9.52748 17.3075 10.695C17.3051 15.5927 13.806 19.5773 9.50661 19.5773M16.1458 3.13456C15.2763 2.13788 14.2418 1.34761 13.1021 0.80955C11.9624 0.271489 10.7403 -0.00366316 9.50661 3.68249e-05C4.33365 3.68249e-05 0.123459 4.79439 0.121092 10.6869C0.121092 12.5705 0.552764 14.4091 1.37428 16.0294L0.0421753 21.5679L5.01785 20.0815C6.39383 20.9351 7.93573 21.3825 9.50267 21.3827H9.50661C14.6788 21.3827 18.8898 16.5884 18.8921 10.695C18.8959 9.29063 18.6552 7.89935 18.1838 6.60162C17.7124 5.3039 17.0197 4.12549 16.1458 3.13456V3.13456Z" fill="#25D366"/>
</svg>
