<svg width="85" height="85" viewBox="0 0 85 85" fill="none" xmlns="http://www.w3.org/2000/svg">
<path d="M61.5928 50.6049C60.556 50.0847 55.456 47.5784 54.5065 47.2293C53.5535 46.8837 52.8624 46.7126 52.1677 47.7529C51.48 48.7897 49.4903 51.125 48.8864 51.8161C48.2825 52.5108 47.6751 52.5946 46.6383 52.078C45.6016 51.5543 42.2574 50.4617 38.2954 46.9291C35.213 44.1784 33.1291 40.7818 32.5252 39.7416C31.9213 38.7048 32.4623 38.1428 32.979 37.6262C33.4467 37.1619 34.0192 36.4149 34.5358 35.811C35.056 35.2036 35.227 34.7707 35.5761 34.0761C35.9217 33.3849 35.7506 32.781 35.4888 32.2609C35.227 31.7408 33.1535 26.6338 32.2913 24.5568C31.4465 22.5356 30.5913 22.8114 29.956 22.7765C29.293 22.7501 28.6296 22.7384 27.9662 22.7416C27.275 22.7416 26.151 22.9999 25.2015 24.0401C24.252 25.0769 21.5711 27.5868 21.5711 32.6937C21.5711 37.7972 25.2888 42.7297 25.8054 43.4243C26.3256 44.1155 33.1221 54.5948 43.528 59.0874C46.003 60.1556 47.9334 60.7944 49.4414 61.2691C51.9268 62.0615 54.1888 61.9498 55.9726 61.681C57.9658 61.3843 62.1094 59.1712 62.9751 56.7486C63.8408 54.326 63.8408 52.249 63.579 51.8161C63.3207 51.3833 62.6295 51.125 61.5893 50.6049M42.6658 76.447H42.6519C36.4724 76.4475 30.4065 74.786 25.0898 71.6367L23.8297 70.8897L10.7707 74.3176L14.2545 61.5833L13.4342 60.2778C9.97984 54.7772 8.15243 48.4116 8.16311 41.9163C8.1666 22.8917 23.6481 7.41362 42.6798 7.41362C51.8954 7.41362 60.5595 11.0091 67.0733 17.5299C70.2871 20.7295 72.8345 24.5349 74.5679 28.7256C76.3014 32.9163 77.1865 37.4092 77.172 41.9443C77.1616 60.9689 61.6835 76.447 42.6658 76.447M72.0336 12.5765C68.1875 8.70494 63.6112 5.63521 58.5701 3.54516C53.5289 1.45511 48.1231 0.386303 42.6658 0.400675C19.7839 0.400675 1.16064 19.0239 1.15016 41.9128C1.15016 49.2295 3.05961 56.3716 6.6935 62.6654L0.801086 84.179L22.8104 78.4053C28.8968 81.7212 35.7172 83.4591 42.6484 83.4599H42.6658C65.5443 83.4599 84.171 64.8367 84.1815 41.9443C84.1984 36.4892 83.1334 31.0848 81.0483 26.0439C78.9631 21.003 75.8992 16.4256 72.0336 12.5765V12.5765Z" fill="white"/>
</svg>
